<?xml version="1.0" encoding="UTF-8"?>
<!DOCTYPE svg PUBLIC "-//W3C//DTD SVG 1.1//EN" "http://www.w3.org/Graphics/SVG/1.1/DTD/svg11.dtd">
<!-- Creator: CorelDRAW 2020 (64-Bit) -->
<svg xmlns="http://www.w3.org/2000/svg" xml:space="preserve" width="7151px" height="1074px" version="1.1" style="shape-rendering:geometricPrecision; text-rendering:geometricPrecision; image-rendering:optimizeQuality; fill-rule:evenodd; clip-rule:evenodd"
viewBox="0 0 7251.59 1089.04"
 xmlns:xlink="http://www.w3.org/1999/xlink"
 xmlns:xodm="http://www.corel.com/coreldraw/odm/2003">
 <defs>
  <style type="text/css">
   <![CDATA[
    .fil0 {fill:#FEFEFE;fill-rule:nonzero}
    .fil1 {fill:url(#id0);fill-rule:nonzero}
   ]]>
  </style>
  <linearGradient id="id0" gradientUnits="userSpaceOnUse" x1="569.32" y1="544.52" x2="1629.46" y2="544.52">
   <stop offset="0" style="stop-opacity:1; stop-color:#56B25D"/>
   <stop offset="1" style="stop-opacity:1; stop-color:#38F8FF"/>
  </linearGradient>
 </defs>
 <g id="Layer_x0020_1">
  <metadata id="CorelCorpID_0Corel-Layer"/>
  <path class="fil0" d="M510.17 874.08c-59.2,24.68 -121.09,37.03 -185.87,37.03 -104.31,0 -184.52,-31.24 -240.43,-93.52 -55.91,-62.28 -83.87,-154.63 -83.87,-276.68 0,-58.99 7.71,-112.6 23.13,-160.41 15.43,-47.82 37.6,-88.31 66.14,-121.66 28.53,-33.36 63.24,-59.2 103.92,-77.13 40.68,-18.12 86.19,-27.18 136.7,-27.18 34.32,0 66.13,2.89 95.64,8.87 29.3,5.78 57.45,14.84 84.64,26.99l0 98.33c-26.8,-14.65 -54.57,-25.83 -83.1,-33.55 -28.73,-7.71 -59.97,-11.57 -93.9,-11.57 -34.71,0 -66.13,6.56 -94.09,19.48 -28.15,12.92 -52.06,31.81 -71.53,56.49 -19.67,24.68 -34.71,54.76 -45.31,90.43 -10.61,35.48 -15.81,76.16 -15.81,121.66 0,95.63 19.47,167.74 58.23,216.33 38.75,48.59 95.82,72.88 170.82,72.88 31.62,0 61.9,-3.66 91.01,-10.99 29.11,-7.33 56.88,-17.54 83.68,-30.66l0 94.86z"/>
  <path class="fil1" d="M1405.57 227.46c72.07,72.06 125.7,142.87 161.1,212.22 35.41,69.34 55.94,135.54 61.18,198.6 5.44,62.85 -2.94,121.93 -25.14,177.23 -22,55.1 -54.47,104.33 -97.42,147.28 -51.54,51.53 -105.79,87.36 -162.57,106.84 -56.98,19.7 -115.64,24.3 -175.98,14.25 -60.33,-10.06 -121.92,-33.94 -184.77,-72.49 -62.85,-38.13 -125.91,-89.03 -189.39,-152.51 -71.23,-71.23 -124.65,-141.41 -160.26,-210.55 -35.62,-69.13 -56.15,-135.33 -61.38,-198.39 -5.45,-62.85 2.93,-121.93 24.92,-177.03 21.79,-54.88 54.06,-103.91 97,-146.85 51.54,-51.54 106.01,-87.16 162.99,-106.43 57.19,-19.48 115.85,-24.51 176.18,-14.87 60.34,9.64 121.93,33.52 184.78,71.23 62.85,38.13 125.7,88.41 188.76,151.47zm-101.61 117.1c-47.13,-47.14 -93.85,-86.73 -140.15,-118.36 -46.51,-31.85 -91.97,-53.42 -136.38,-65.58 -44.62,-11.94 -87.36,-12.77 -128.84,-2.72 -41.28,10.27 -80.03,33.52 -116.27,69.76 -34.99,34.99 -56.99,73.75 -65.58,115.44 -8.8,41.9 -7.12,85.05 5.03,129.88 12.36,44.63 33.52,90.09 63.9,136.39 30.17,46.09 66.83,90.71 109.78,133.66 47.55,47.55 94.48,86.94 141.19,118.57 46.72,31.64 91.98,53.42 136.18,65.36 43.99,11.74 86.52,12.78 127.58,3.14 41.06,-10.05 79.61,-33.09 115.43,-68.92 35.2,-35.19 56.99,-73.74 66,-115.85 8.8,-41.9 7.54,-85.47 -4.61,-130.31 -11.95,-45.04 -32.89,-90.29 -63.06,-136.38 -30.17,-46.09 -66.83,-90.71 -110.2,-134.08z"/>
  <path class="fil0" d="M1850.42 257.74l-170.05 0 0 -84.45 441.91 0 0 84.45 -170.06 0 0 568.01 170.06 0 0 85.6 -441.91 0 0 -85.6 170.05 0 0 -568.01zm938.01 653.61l-136.31 0 -205.73 -460.42 -59.38 -148.08 0 372.32 0 236.18 -100.65 0 0 -738.06 134.58 0 196.08 436.13 70.77 168.9 0 -395.45 0 -209.58 100.64 0 0 738.06zm614.09 -8.1c-22.17,5.79 -45.12,9.84 -68.83,12.34 -23.72,2.51 -47.82,3.86 -72.3,3.86 -71.15,0 -124.17,-16.2 -159.07,-48.39 -35.09,-32.2 -52.44,-81.56 -52.44,-148.27l0 -296.15 -158.68 0 0 -82.14 158.68 0 0 -156.18 98.33 -25.44 0 181.62 254.31 0 0 82.14 -254.31 0 0 288.05c0,40.68 10.8,71.15 32.39,91.2 21.6,20.24 53.41,30.27 95.63,30.27 17.93,0 37.79,-1.35 59.19,-4.24 21.41,-2.7 43.77,-7.14 67.1,-13.12l0 84.45zm202.26 -558.75l89.85 0 2.89 104.5c33.54,-40.29 66.52,-69.6 99.1,-87.73 32.58,-18.12 65.55,-27.18 98.72,-27.18 58.61,0 103.15,19.09 133.61,57.07 30.27,38.17 44.35,94.67 42.03,169.67l-99.48 0c1.15,-49.94 -6.17,-85.99 -21.79,-108.55 -15.62,-22.56 -38.56,-33.74 -68.64,-33.74 -13.11,0 -26.41,2.31 -39.72,7.13 -13.5,4.63 -27.18,12.15 -41.26,22.56 -14.27,10.41 -29.11,23.72 -44.93,40.1 -15.8,16.2 -32.77,35.87 -50.89,59l0 364.02 -99.49 0 0 -566.85zm977.53 566.85l-2.12 -76.16c-30.85,30.47 -62.28,52.64 -94.09,66.14 -31.82,13.69 -65.36,20.44 -100.26,20.44 -32.39,0 -60.16,-4.25 -83.1,-12.54 -22.95,-8.29 -42.03,-19.66 -56.88,-34.13 -14.85,-14.45 -25.83,-31.42 -32.78,-51.09 -6.94,-19.66 -10.41,-40.87 -10.41,-63.82 0,-56.87 21.21,-101.41 63.63,-133.61 42.42,-32.2 104.89,-48.4 187.79,-48.4l117.62 0 0 -49.74c0,-33.74 -10.8,-60.54 -32.2,-80.79 -21.6,-20.24 -54.37,-30.27 -98.33,-30.27 -32.01,0 -63.63,3.66 -94.67,10.8 -31.05,7.32 -63.25,17.54 -96.41,30.85l0 -89.08c12.34,-4.43 26.23,-8.87 41.46,-13.11 15.23,-4.43 31.42,-8.1 48.2,-11.57 16.97,-3.28 34.7,-5.98 53.21,-8.1 18.32,-2.12 37.02,-3.08 55.72,-3.08 34.32,0 65.17,3.86 92.75,11.37 27.37,7.52 50.7,18.9 69.6,34.32 19.09,15.43 33.55,34.9 43.76,58.23 10.22,23.33 15.24,50.9 15.24,82.52l0 390.82 -87.73 0zm-10.6 -257.97l-124.75 0c-24.49,0 -45.7,2.5 -63.44,7.32 -17.54,4.83 -32.19,11.96 -43.38,20.83 -11.37,9.06 -19.66,19.86 -25.25,32.58 -5.4,12.53 -8.1,26.8 -8.1,42.61 0,10.8 1.73,21.21 5.01,31.24 3.47,10.02 8.87,18.89 16.39,26.6 7.52,7.72 17.35,13.7 29.5,18.32 11.95,4.44 26.61,6.75 43.96,6.75 22.56,0 48.59,-6.94 77.7,-20.63 29.11,-13.69 59.96,-35.48 92.36,-65.17l0 -100.45zm722.83 237.15c-25.64,9.84 -51.86,17.16 -78.86,21.79 -26.99,4.82 -54.76,7.13 -83.29,7.13 -89.66,0 -158.68,-24.29 -207.07,-72.88 -48.4,-48.59 -72.69,-119.54 -72.69,-213.05 0,-44.73 6.93,-85.42 20.82,-122.05 14.07,-36.44 33.55,-67.67 58.8,-93.7 25.26,-26.03 55.53,-46.08 90.43,-60.16 35.09,-14.07 73.65,-21.21 115.88,-21.21 29.31,0 56.88,2.12 82.52,6.17 25.64,4.24 50.13,10.99 73.46,20.44l0 93.71c-24.49,-12.92 -49.36,-22.37 -74.81,-28.15 -25.45,-5.98 -51.67,-8.88 -78.86,-8.88 -25.25,0 -48.97,4.83 -71.53,14.47 -22.36,9.64 -42.03,23.32 -59,41.45 -16.96,18.12 -30.27,40.1 -40.1,66.13 -9.84,26.03 -14.66,55.34 -14.66,88.11 0,68.64 16.58,119.93 49.94,154.06 33.36,34.13 79.63,51.09 138.82,51.09 26.61,0 52.64,-3.08 77.71,-9.06 24.87,-5.98 49.16,-14.85 72.49,-26.8l0 91.39zm705.48 20.82l-135.35 0 -263.76 -303.86 0 303.86 -98.33 0 0 -798.22 98.33 0 0 490.31 254.5 -258.94 129.57 0 -264.91 261.25 279.95 305.6zm604.84 -313.69c0,13.88 -0.2,25.64 -0.58,34.89 -0.38,9.45 -0.96,18.32 -1.74,26.61l-397.95 0c0,58.04 16.2,102.77 48.59,133.81 32.39,31.04 79.05,46.66 140.17,46.66 16.58,0 33.16,-0.58 49.74,-1.93 16.58,-1.35 32.59,-3.08 48.01,-5.4 15.43,-2.31 30.27,-4.82 44.35,-7.71 14.27,-2.7 27.18,-5.79 39.33,-9.25l0 80.98c-26.8,7.51 -57.07,13.68 -90.81,18.31 -33.55,4.82 -68.64,7.14 -104.7,7.14 -48.78,0 -90.61,-6.56 -125.51,-19.86 -35.09,-13.12 -63.82,-32.2 -86.19,-57.27 -22.56,-25.06 -39.14,-55.72 -49.74,-92.16 -10.8,-36.25 -16.2,-77.51 -16.2,-123.4 0,-39.91 5.79,-77.7 17.16,-113.37 11.57,-35.47 28.34,-66.9 50.32,-93.7 21.98,-27 48.98,-48.4 80.98,-64.21 32.01,-15.81 68.45,-23.71 109.13,-23.71 39.53,0 74.42,6.17 105.08,18.7 30.47,12.34 56.11,29.89 76.93,52.64 21.02,22.75 36.83,50.51 47.62,83.1 10.61,32.39 16.01,68.83 16.01,109.13zm-101.8 -13.69c1.15,-25.26 -1.35,-48.4 -7.33,-69.22 -5.98,-20.82 -15.43,-38.95 -27.96,-53.99 -12.72,-15.04 -28.34,-26.8 -47.24,-35.28 -18.89,-8.48 -40.68,-12.73 -65.55,-12.73 -21.6,0 -41.07,4.05 -58.81,12.34 -17.73,8.29 -32.97,20.05 -45.88,35.09 -12.73,15.04 -23.14,33.17 -31.05,54.38 -7.9,21.01 -12.72,44.15 -14.65,69.41l298.47 0zm282.07 -239.47l89.85 0 2.89 104.5c33.55,-40.29 66.52,-69.6 99.11,-87.73 32.58,-18.12 65.55,-27.18 98.71,-27.18 58.62,0 103.15,19.09 133.62,57.07 30.27,38.17 44.34,94.67 42.03,169.67l-99.49 0c1.16,-49.94 -6.17,-85.99 -21.78,-108.55 -15.62,-22.56 -38.57,-33.74 -68.64,-33.74 -13.12,0 -26.42,2.31 -39.72,7.13 -13.5,4.63 -27.19,12.15 -41.26,22.56 -14.27,10.41 -29.12,23.72 -44.93,40.1 -15.81,16.2 -32.77,35.87 -50.9,59l0 364.02 -99.49 0 0 -566.85z"/>
 </g>
</svg>
